<svg width="24" height="24" viewBox="0 0 24 24" fill="none" xmlns="http://www.w3.org/2000/svg">
<path d="M11.4328 20.3672L3.74766 11.5125C3.68906 11.4445 3.65625 11.3578 3.65625 11.2664L3.65625 9.19219C3.65625 9.01875 3.87187 8.93906 3.98437 9.07031L11.1094 17.2781L11.1094 3.5625C11.1094 3.45938 11.1937 3.375 11.2969 3.375L12.7031 3.375C12.8062 3.375 12.8906 3.45938 12.8906 3.5625L12.8906 17.2758L20.0156 9.06797C20.1305 8.93672 20.3437 9.01641 20.3437 9.18984L20.3437 11.3344C20.3437 11.3789 20.3273 11.4234 20.2969 11.4562L12.5672 20.3672C12.4966 20.4483 12.4095 20.5134 12.3116 20.558C12.2138 20.6025 12.1075 20.6256 12 20.6256C11.8925 20.6256 11.7862 20.6025 11.6884 20.558C11.5905 20.5134 11.5034 20.4483 11.4328 20.3672Z" fill="white"/>
</svg>
