<svg width="44" height="44" viewBox="0 0 44 44" fill="none" xmlns="http://www.w3.org/2000/svg">
<circle cx="22" cy="22" r="21" stroke="black" stroke-width="2"/>
<path d="M16.225 14.811C16.0364 14.6288 15.7838 14.528 15.5216 14.5303C15.2595 14.5326 15.0086 14.6378 14.8232 14.8232C14.6378 15.0086 14.5327 15.2594 14.5304 15.5216C14.5281 15.7838 14.6289 16.0364 14.811 16.225L20.586 22L14.81 27.775C14.7145 27.8672 14.6384 27.9776 14.5859 28.0996C14.5335 28.2216 14.506 28.3528 14.5048 28.4856C14.5036 28.6184 14.5289 28.75 14.5792 28.8729C14.6295 28.9958 14.7038 29.1075 14.7977 29.2014C14.8915 29.2953 15.0032 29.3695 15.1261 29.4198C15.249 29.4701 15.3807 29.4954 15.5134 29.4942C15.6462 29.4931 15.7774 29.4655 15.8995 29.4131C16.0215 29.3607 16.1318 29.2845 16.224 29.189L22 23.414L27.775 29.189C27.9637 29.3711 28.2163 29.4719 28.4784 29.4697C28.7406 29.4674 28.9915 29.3622 29.1769 29.1768C29.3623 28.9914 29.4674 28.7406 29.4697 28.4784C29.472 28.2162 29.3712 27.9636 29.189 27.775L23.414 22L29.189 16.225C29.3712 16.0364 29.472 15.7838 29.4697 15.5216C29.4674 15.2594 29.3623 15.0086 29.1769 14.8232C28.9915 14.6378 28.7406 14.5326 28.4784 14.5303C28.2163 14.528 27.9637 14.6288 27.775 14.811L22 20.586L16.225 14.81V14.811Z" fill="black"/>
</svg>
