<svg width="44" height="44" viewBox="0 0 44 44" fill="none" xmlns="http://www.w3.org/2000/svg">
<circle cx="22" cy="22" r="21" stroke="white" stroke-width="2"/>
<path d="M16.2249 14.811C16.0363 14.6288 15.7837 14.528 15.5215 14.5303C15.2593 14.5326 15.0085 14.6378 14.8231 14.8232C14.6377 15.0086 14.5325 15.2594 14.5303 15.5216C14.528 15.7838 14.6288 16.0364 14.8109 16.225L20.5859 22L14.8099 27.775C14.7144 27.8672 14.6382 27.9776 14.5858 28.0996C14.5334 28.2216 14.5058 28.3528 14.5047 28.4856C14.5035 28.6184 14.5288 28.75 14.5791 28.8729C14.6294 28.9958 14.7036 29.1075 14.7975 29.2014C14.8914 29.2953 15.0031 29.3695 15.126 29.4198C15.2489 29.4701 15.3805 29.4954 15.5133 29.4942C15.6461 29.4931 15.7773 29.4655 15.8993 29.4131C16.0213 29.3607 16.1317 29.2845 16.2239 29.189L21.9999 23.414L27.7749 29.189C27.9635 29.3711 28.2161 29.4719 28.4783 29.4697C28.7405 29.4674 28.9913 29.3622 29.1767 29.1768C29.3622 28.9914 29.4673 28.7406 29.4696 28.4784C29.4719 28.2162 29.3711 27.9636 29.1889 27.775L23.4139 22L29.1889 16.225C29.3711 16.0364 29.4719 15.7838 29.4696 15.5216C29.4673 15.2594 29.3622 15.0086 29.1767 14.8232C28.9913 14.6378 28.7405 14.5326 28.4783 14.5303C28.2161 14.528 27.9635 14.6288 27.7749 14.811L21.9999 20.586L16.2249 14.81V14.811Z" fill="white"/>
</svg>
