<svg width="26" height="26" viewBox="0 0 26 26" fill="none" xmlns="http://www.w3.org/2000/svg">
<path d="M7.75 0.0351562H18.25C22.25 0.0351562 25.5 3.28516 25.5 7.28516V17.7852C25.5 19.708 24.7362 21.552 23.3765 22.9117C22.0169 24.2713 20.1728 25.0352 18.25 25.0352H7.75C3.75 25.0352 0.5 21.7852 0.5 17.7852V7.28516C0.5 5.36234 1.26384 3.51827 2.62348 2.15863C3.98311 0.798993 5.82718 0.0351563 7.75 0.0351562ZM7.5 2.53516C6.30653 2.53516 5.16193 3.00926 4.31802 3.85318C3.47411 4.69709 3 5.84168 3 7.03516V18.0352C3 20.5227 5.0125 22.5352 7.5 22.5352H18.5C19.6935 22.5352 20.8381 22.0611 21.682 21.2171C22.5259 20.3732 23 19.2286 23 18.0352V7.03516C23 4.54766 20.9875 2.53516 18.5 2.53516H7.5ZM19.5625 4.41016C19.9769 4.41016 20.3743 4.57478 20.6674 4.8678C20.9604 5.16083 21.125 5.55826 21.125 5.97266C21.125 6.38706 20.9604 6.78448 20.6674 7.07751C20.3743 7.37054 19.9769 7.53516 19.5625 7.53516C19.1481 7.53516 18.7507 7.37054 18.4576 7.07751C18.1646 6.78448 18 6.38706 18 5.97266C18 5.55826 18.1646 5.16083 18.4576 4.8678C18.7507 4.57478 19.1481 4.41016 19.5625 4.41016ZM13 6.28516C14.6576 6.28516 16.2473 6.94364 17.4194 8.11574C18.5915 9.28784 19.25 10.8776 19.25 12.5352C19.25 14.1928 18.5915 15.7825 17.4194 16.9546C16.2473 18.1267 14.6576 18.7852 13 18.7852C11.3424 18.7852 9.75268 18.1267 8.58058 16.9546C7.40848 15.7825 6.75 14.1928 6.75 12.5352C6.75 10.8776 7.40848 9.28784 8.58058 8.11574C9.75268 6.94364 11.3424 6.28516 13 6.28516ZM13 8.78516C12.0054 8.78516 11.0516 9.18024 10.3483 9.8835C9.64509 10.5868 9.25 11.5406 9.25 12.5352C9.25 13.5297 9.64509 14.4835 10.3483 15.1868C11.0516 15.8901 12.0054 16.2852 13 16.2852C13.9946 16.2852 14.9484 15.8901 15.6517 15.1868C16.3549 14.4835 16.75 13.5297 16.75 12.5352C16.75 11.5406 16.3549 10.5868 15.6517 9.8835C14.9484 9.18024 13.9946 8.78516 13 8.78516Z" fill="black"/>
</svg>
