<svg width="156" height="58" viewBox="0 0 156 58" fill="none" xmlns="http://www.w3.org/2000/svg">
<path d="M120.126 28.0342C120.126 42.2842 108.574 53.8361 94.324 53.8361C80.0741 53.8361 68.5222 42.2842 68.5222 28.0342C68.5222 13.7843 80.0741 2.23242 94.324 2.23242C108.574 2.23242 120.126 13.7843 120.126 28.0342Z" fill="#00A3FF"/>
<path d="M30.795 14.7877H15.2807V0.852539H45.2011V33.5527C45.2011 38.4616 44.2249 42.7108 42.2724 46.3002C40.3199 49.8367 37.6287 52.5288 34.1986 54.3762C30.8214 56.2237 27.0483 57.1474 22.8795 57.1474C18.869 57.1474 15.1488 56.1445 11.7187 54.1387C8.34146 52.1329 5.65021 49.4409 3.64496 46.0626C1.63971 42.6316 0.637085 38.9103 0.637085 34.8987H15.0432C15.0432 37.3268 15.7292 39.359 17.1012 40.9953C18.526 42.6316 20.4257 43.4498 22.8004 43.4498C25.3333 43.4498 27.2858 42.658 28.6578 41.0745C30.0826 39.4382 30.795 37.0629 30.795 33.9486V14.7877Z" fill="white"/>
<path d="M67.937 0.852539C71.4198 0.852539 74.1902 1.38039 76.2483 2.43608C78.7284 3.70291 80.6281 5.44481 81.9474 7.66177C83.3194 9.87873 84.0054 12.3596 84.0054 15.1044C84.0054 17.6909 83.3194 20.0926 81.9474 22.3095C80.5754 24.4737 78.702 26.1892 76.3274 27.456C79.177 28.4589 81.578 30.2008 83.5305 32.6817C85.4829 35.1626 86.4592 37.9602 86.4592 41.0745C86.4592 43.8193 85.7468 46.353 84.322 48.6755C82.95 50.9452 81.1031 52.7399 78.7812 54.0595C77.6203 54.6929 76.3274 55.168 74.9026 55.4847C73.4778 55.8014 71.5781 55.9598 69.2035 55.9598H44.8239V0.852539H67.937Z" fill="white"/>
<path d="M93.7916 39.5975V42.5483H91.7024V36.8925H93.7916V37.6516C93.8553 37.5519 93.933 37.4592 94.0249 37.3737C94.4279 36.9674 94.9299 36.7643 95.5309 36.7643C96.4217 36.7643 97.0615 37.1278 97.4504 37.8548C97.6413 37.4984 97.9205 37.2275 98.2882 37.0422C98.6558 36.8569 99.0517 36.7643 99.4759 36.7643C100.176 36.7643 100.72 36.9888 101.109 37.4378C101.505 37.8797 101.703 38.4535 101.703 39.1591V42.5483H99.6138V39.5975C99.6138 39.2981 99.5325 39.0558 99.3699 38.8705C99.2002 38.6994 98.9704 38.6139 98.6806 38.6139C98.3836 38.6139 98.1538 38.703 97.9912 38.8812C97.8286 39.0594 97.7473 39.2981 97.7473 39.5975V42.5483H95.6581V39.5975C95.6581 39.2981 95.5768 39.0558 95.4142 38.8705C95.2445 38.6994 95.0147 38.6139 94.7249 38.6139C94.4279 38.6139 94.1981 38.703 94.0355 38.8812C93.8729 39.0594 93.7916 39.2981 93.7916 39.5975Z" fill="white"/>
<path d="M106.863 42.5483V41.7892C106.488 42.3666 105.912 42.6552 105.134 42.6552C104.357 42.6552 103.752 42.3666 103.321 41.7892C102.89 41.2048 102.674 40.5134 102.674 39.7151C102.674 38.9025 102.893 38.2112 103.332 37.641C103.77 37.0707 104.374 36.7856 105.145 36.7856C105.81 36.7856 106.326 36.9959 106.693 37.4164C106.778 37.5233 106.824 37.5839 106.831 37.5982V36.8925H108.92V42.5483H106.863ZM106.577 40.5597C106.761 40.3316 106.853 40.0501 106.853 39.7151C106.853 39.3801 106.761 39.1021 106.577 38.8812C106.393 38.6602 106.138 38.5497 105.813 38.5497C105.488 38.5497 105.233 38.6638 105.05 38.8919C104.866 39.1128 104.774 39.3872 104.774 39.7151C104.774 40.0501 104.866 40.3316 105.05 40.5597C105.233 40.7807 105.488 40.8912 105.813 40.8912C106.138 40.8912 106.393 40.7807 106.577 40.5597Z" fill="white"/>
<path d="M112.299 39.9717V42.5483H110.21V36.8925H112.299V37.6944C112.32 37.6659 112.366 37.5982 112.437 37.4913C112.486 37.42 112.578 37.3309 112.712 37.224C113.016 37.003 113.405 36.8925 113.879 36.8925H114.992V38.9667H113.402C113.034 38.9667 112.758 39.0451 112.574 39.2019C112.391 39.3587 112.299 39.6153 112.299 39.9717Z" fill="white"/>
<path d="M119.998 42.5483L118.047 40.1V42.5483H115.937V34.6794H118.047V38.9988L119.977 36.8925H122.512L120.115 39.4692L122.66 42.5483H119.998Z" fill="white"/>
<path d="M125.675 36.7429C126.616 36.7429 127.361 37.0066 127.913 37.534C128.464 38.0615 128.74 38.7885 128.74 39.7151V40.1534H124.657C124.714 40.4528 124.841 40.688 125.039 40.8591C125.237 41.0301 125.488 41.1157 125.792 41.1157C125.94 41.1157 126.099 41.0943 126.269 41.0515C126.446 41.0016 126.563 40.9268 126.619 40.827H128.687C128.645 41.219 128.464 41.5647 128.146 41.8641C127.828 42.1634 127.464 42.3808 127.054 42.5163C126.693 42.6374 126.273 42.698 125.792 42.698C124.837 42.698 124.063 42.4343 123.469 41.9068C122.883 41.3723 122.589 40.6417 122.589 39.7151C122.589 38.7885 122.876 38.0615 123.448 37.534C124.021 37.0066 124.763 36.7429 125.675 36.7429ZM126.322 38.4107C126.145 38.2753 125.93 38.2076 125.675 38.2076C125.421 38.2076 125.202 38.2753 125.018 38.4107C124.841 38.539 124.724 38.7244 124.668 38.9667H126.683C126.626 38.7244 126.506 38.539 126.322 38.4107Z" fill="white"/>
<path d="M134.473 40.7094V42.5483H132.532C131.267 42.5483 130.634 41.9603 130.634 40.7842V38.6032H129.277V36.8925H130.634V34.9574H132.723V36.8925H134.473V38.6032H132.723V39.9931C132.723 40.2568 132.776 40.4421 132.882 40.549C132.989 40.6559 133.172 40.7094 133.434 40.7094H134.473Z" fill="white"/>
<path d="M135.52 36.3152V34.519H137.705V36.3152H135.52ZM135.562 42.5483V36.8925H137.662V42.5483H135.562Z" fill="white"/>
<path d="M141.059 39.6082V42.5483H138.97V36.8925H141.059V37.673C141.228 37.395 141.479 37.1741 141.812 37.0102C142.144 36.8462 142.48 36.7643 142.819 36.7643C143.526 36.7643 144.074 36.9888 144.463 37.4378C144.859 37.8869 145.057 38.4678 145.057 39.1805V42.5483H142.968V39.6082C142.968 39.3017 142.883 39.0594 142.713 38.8812C142.543 38.703 142.31 38.6139 142.013 38.6139C141.716 38.6139 141.483 38.703 141.313 38.8812C141.144 39.0594 141.059 39.3017 141.059 39.6082Z" fill="white"/>
<path d="M150.247 42.1527V41.6823C149.872 42.2597 149.296 42.5483 148.518 42.5483C147.741 42.5483 147.133 42.2668 146.694 41.7037C146.256 41.1335 146.037 40.4528 146.037 39.6616C146.037 38.8491 146.256 38.1684 146.694 37.6196C147.14 37.0636 147.751 36.7856 148.529 36.7856C148.868 36.7856 149.19 36.8569 149.494 36.9995C149.798 37.1349 150.038 37.3345 150.215 37.5982V36.8925H152.304V42.2169C152.304 42.6873 152.22 43.09 152.05 43.425C151.88 43.7672 151.643 44.0273 151.339 44.2055C151.035 44.3908 150.703 44.5227 150.342 44.6011C149.989 44.6866 149.593 44.7294 149.155 44.7294C148.596 44.7294 148.045 44.626 147.5 44.4193C146.956 44.2198 146.56 43.9133 146.313 43.4999C146.192 43.3003 146.115 43.1364 146.079 43.0081H148.582C148.681 43.1079 148.872 43.1577 149.155 43.1577C149.883 43.1577 150.247 42.8227 150.247 42.1527ZM150.236 39.6616C150.236 39.348 150.145 39.0807 149.961 38.8598C149.77 38.6531 149.512 38.5497 149.187 38.5497C148.861 38.5497 148.603 38.6531 148.412 38.8598C148.229 39.0594 148.137 39.3266 148.137 39.6616C148.137 39.9966 148.229 40.2711 148.412 40.4849C148.603 40.6916 148.861 40.7949 149.187 40.7949C149.512 40.7949 149.766 40.6916 149.95 40.4849C150.141 40.2711 150.236 39.9966 150.236 39.6616Z" fill="white"/>
<path d="M153.646 42.5483V40.1748H156V42.5483H153.646Z" fill="white"/>
</svg>
