<svg width="156" height="58" viewBox="0 0 156 58" fill="none" xmlns="http://www.w3.org/2000/svg">
<path d="M120.126 28.0342C120.126 42.2842 108.574 53.8361 94.3243 53.8361C80.0743 53.8361 68.5225 42.2842 68.5225 28.0342C68.5225 13.7843 80.0743 2.23242 94.3243 2.23242C108.574 2.23242 120.126 13.7843 120.126 28.0342Z" fill="#00A3FF"/>
<path d="M30.7951 14.7877H15.2808V0.852539H45.2012V33.5527C45.2012 38.4616 44.225 42.7108 42.2725 46.3002C40.32 49.8367 37.6288 52.5288 34.1987 54.3762C30.8215 56.2237 27.0484 57.1474 22.8796 57.1474C18.8691 57.1474 15.1489 56.1445 11.7188 54.1387C8.34159 52.1329 5.65033 49.4409 3.64508 46.0626C1.63983 42.6316 0.637207 38.9103 0.637207 34.8987H15.0433C15.0433 37.3268 15.7293 39.359 17.1014 40.9953C18.5261 42.6316 20.4259 43.4498 22.8005 43.4498C25.3334 43.4498 27.2859 42.658 28.6579 41.0745C30.0827 39.4382 30.7951 37.0629 30.7951 33.9486V14.7877Z" fill="black"/>
<path d="M67.9371 0.852539C71.4199 0.852539 74.1904 1.38039 76.2484 2.43608C78.7285 3.70291 80.6283 5.44481 81.9475 7.66177C83.3195 9.87873 84.0055 12.3596 84.0055 15.1044C84.0055 17.6909 83.3195 20.0926 81.9475 22.3095C80.5755 24.4737 78.7022 26.1892 76.3275 27.456C79.1771 28.4589 81.5781 30.2008 83.5306 32.6817C85.4831 35.1626 86.4593 37.9602 86.4593 41.0745C86.4593 43.8193 85.7469 46.353 84.3221 48.6755C82.9501 50.9452 81.1032 52.7399 78.7813 54.0595C77.6204 54.6929 76.3275 55.168 74.9027 55.4847C73.478 55.8014 71.5783 55.9598 69.2036 55.9598H44.824V0.852539H67.9371Z" fill="black"/>
<path d="M93.7918 39.5975V42.5483H91.7026V36.8925H93.7918V37.6516C93.8555 37.5519 93.9332 37.4592 94.0251 37.3737C94.4281 36.9674 94.9301 36.7643 95.5311 36.7643C96.4219 36.7643 97.0617 37.1278 97.4506 37.8548C97.6415 37.4984 97.9207 37.2275 98.2884 37.0422C98.656 36.8569 99.0519 36.7643 99.4761 36.7643C100.176 36.7643 100.72 36.9888 101.109 37.4378C101.505 37.8797 101.703 38.4535 101.703 39.1591V42.5483H99.614V39.5975C99.614 39.2981 99.5327 39.0558 99.3701 38.8705C99.2004 38.6994 98.9706 38.6139 98.6808 38.6139C98.3838 38.6139 98.1541 38.703 97.9914 38.8812C97.8288 39.0594 97.7475 39.2981 97.7475 39.5975V42.5483H95.6583V39.5975C95.6583 39.2981 95.577 39.0558 95.4144 38.8705C95.2447 38.6994 95.015 38.6139 94.7251 38.6139C94.4281 38.6139 94.1984 38.703 94.0358 38.8812C93.8731 39.0594 93.7918 39.2981 93.7918 39.5975Z" fill="black"/>
<path d="M106.863 42.5483V41.7892C106.489 42.3666 105.912 42.6552 105.135 42.6552C104.357 42.6552 103.753 42.3666 103.321 41.7892C102.89 41.2048 102.674 40.5134 102.674 39.7151C102.674 38.9025 102.893 38.2112 103.332 37.641C103.77 37.0707 104.375 36.7856 105.145 36.7856C105.81 36.7856 106.326 36.9959 106.694 37.4164C106.778 37.5233 106.824 37.5839 106.832 37.5982V36.8925H108.921V42.5483H106.863ZM106.577 40.5597C106.761 40.3316 106.853 40.0501 106.853 39.7151C106.853 39.3801 106.761 39.1021 106.577 38.8812C106.393 38.6602 106.139 38.5497 105.813 38.5497C105.488 38.5497 105.234 38.6638 105.05 38.8919C104.866 39.1128 104.774 39.3872 104.774 39.7151C104.774 40.0501 104.866 40.3316 105.05 40.5597C105.234 40.7807 105.488 40.8912 105.813 40.8912C106.139 40.8912 106.393 40.7807 106.577 40.5597Z" fill="black"/>
<path d="M112.299 39.9717V42.5483H110.21V36.8925H112.299V37.6944C112.32 37.6659 112.366 37.5982 112.437 37.4913C112.486 37.42 112.578 37.3309 112.713 37.224C113.017 37.003 113.405 36.8925 113.879 36.8925H114.993V38.9667H113.402C113.034 38.9667 112.758 39.0451 112.575 39.2019C112.391 39.3587 112.299 39.6153 112.299 39.9717Z" fill="black"/>
<path d="M119.999 42.5483L118.047 40.1V42.5483H115.937V34.6794H118.047V38.9988L119.977 36.8925H122.512L120.115 39.4692L122.66 42.5483H119.999Z" fill="black"/>
<path d="M125.675 36.7429C126.616 36.7429 127.362 37.0066 127.913 37.534C128.465 38.0615 128.74 38.7885 128.74 39.7151V40.1534H124.657C124.714 40.4528 124.841 40.688 125.039 40.8591C125.237 41.0301 125.488 41.1157 125.792 41.1157C125.941 41.1157 126.1 41.0943 126.269 41.0515C126.446 41.0016 126.563 40.9268 126.619 40.827H128.687C128.645 41.219 128.465 41.5647 128.146 41.8641C127.828 42.1634 127.464 42.3808 127.054 42.5163C126.694 42.6374 126.273 42.698 125.792 42.698C124.838 42.698 124.063 42.4343 123.47 41.9068C122.883 41.3723 122.589 40.6417 122.589 39.7151C122.589 38.7885 122.876 38.0615 123.448 37.534C124.021 37.0066 124.763 36.7429 125.675 36.7429ZM126.322 38.4107C126.146 38.2753 125.93 38.2076 125.675 38.2076C125.421 38.2076 125.202 38.2753 125.018 38.4107C124.841 38.539 124.725 38.7244 124.668 38.9667H126.683C126.626 38.7244 126.506 38.539 126.322 38.4107Z" fill="black"/>
<path d="M134.473 40.7094V42.5483H132.533C131.267 42.5483 130.634 41.9603 130.634 40.7842V38.6032H129.277V36.8925H130.634V34.9574H132.724V36.8925H134.473V38.6032H132.724V39.9931C132.724 40.2568 132.777 40.4421 132.883 40.549C132.989 40.6559 133.173 40.7094 133.434 40.7094H134.473Z" fill="black"/>
<path d="M135.52 36.3152V34.519H137.705V36.3152H135.52ZM135.563 42.5483V36.8925H137.662V42.5483H135.563Z" fill="black"/>
<path d="M141.059 39.6082V42.5483H138.97V36.8925H141.059V37.673C141.229 37.395 141.48 37.1741 141.812 37.0102C142.144 36.8462 142.48 36.7643 142.819 36.7643C143.526 36.7643 144.074 36.9888 144.463 37.4378C144.859 37.8869 145.057 38.4678 145.057 39.1805V42.5483H142.968V39.6082C142.968 39.3017 142.883 39.0594 142.713 38.8812C142.544 38.703 142.31 38.6139 142.013 38.6139C141.716 38.6139 141.483 38.703 141.313 38.8812C141.144 39.0594 141.059 39.3017 141.059 39.6082Z" fill="black"/>
<path d="M150.247 42.1527V41.6823C149.873 42.2597 149.296 42.5483 148.519 42.5483C147.741 42.5483 147.133 42.2668 146.695 41.7037C146.256 41.1335 146.037 40.4528 146.037 39.6616C146.037 38.8491 146.256 38.1684 146.695 37.6196C147.14 37.0636 147.752 36.7856 148.529 36.7856C148.869 36.7856 149.19 36.8569 149.494 36.9995C149.798 37.1349 150.039 37.3345 150.215 37.5982V36.8925H152.305V42.2169C152.305 42.6873 152.22 43.09 152.05 43.425C151.88 43.7672 151.644 44.0273 151.34 44.2055C151.036 44.3908 150.703 44.5227 150.343 44.6011C149.989 44.6866 149.593 44.7294 149.155 44.7294C148.596 44.7294 148.045 44.626 147.501 44.4193C146.956 44.2198 146.56 43.9133 146.313 43.4999C146.193 43.3003 146.115 43.1364 146.079 43.0081H148.582C148.681 43.1079 148.872 43.1577 149.155 43.1577C149.883 43.1577 150.247 42.8227 150.247 42.1527ZM150.237 39.6616C150.237 39.348 150.145 39.0807 149.961 38.8598C149.77 38.6531 149.512 38.5497 149.187 38.5497C148.861 38.5497 148.603 38.6531 148.413 38.8598C148.229 39.0594 148.137 39.3266 148.137 39.6616C148.137 39.9966 148.229 40.2711 148.413 40.4849C148.603 40.6916 148.861 40.7949 149.187 40.7949C149.512 40.7949 149.766 40.6916 149.95 40.4849C150.141 40.2711 150.237 39.9966 150.237 39.6616Z" fill="black"/>
<path d="M153.646 42.5483V40.1748H156V42.5483H153.646Z" fill="black"/>
</svg>
