<svg width="261" height="27" viewBox="0 0 261 27" fill="none"
    xmlns="http://www.w3.org/2000/svg">
    <path d="M132.856 20.4349C133.642 21.5394 133.46 23.0735 132.433 23.8712C130.862 25.0985 128.929 25.7735 126.935 25.7735C124.942 25.7735 123.008 25.0985 121.437 23.8712C120.35 23.0735 120.169 21.4781 121.014 20.4349C121.86 19.3917 123.371 19.1462 124.398 20.0053C125.123 20.5576 126.029 20.8644 126.996 20.8644C127.962 20.8644 128.808 20.5576 129.594 20.0053C130.5 19.1462 132.01 19.3303 132.856 20.4349ZM123.673 13.7462C124.458 12.8258 125.606 12.2735 126.875 12.2735C127.842 12.2735 128.687 12.5803 129.473 13.194C130.5 13.9917 132.071 13.8076 132.856 12.7644C133.642 11.7212 133.46 10.1258 132.433 9.32805C130.862 8.10078 128.929 7.42578 126.875 7.42578C124.277 7.42578 121.8 8.53033 120.108 10.494L111.952 19.3917L111.892 19.4531C111.106 20.3735 109.958 20.9258 108.689 20.9258C106.333 20.9258 104.46 19.0235 104.46 16.6303C104.46 14.2371 106.333 12.3349 108.689 12.3349C109.656 12.3349 110.502 12.6417 111.287 13.2553C112.375 14.0531 113.885 13.869 114.671 12.8258C115.456 11.7212 115.275 10.1871 114.248 9.38942C112.677 8.16214 110.744 7.48714 108.689 7.48714C107.499 7.48553 106.32 7.72251 105.22 8.18451C104.119 8.64651 103.12 9.32445 102.278 10.1795C101.436 11.0345 100.768 12.0499 100.314 13.1674C99.8587 14.2848 99.6254 15.4825 99.627 16.6917C99.627 21.7849 103.675 25.8962 108.689 25.8962C111.287 25.8962 113.764 24.7917 115.456 22.8281L123.673 13.7462Z" fill="#D9D9D9"/>
    <path d="M173.758 12.4568C172.973 13.5614 171.463 13.8068 170.375 13.0705C169.65 12.5796 168.804 12.2727 167.958 12.2727C165.602 12.2727 163.729 14.175 163.729 16.5682V23.3182C163.729 24.6682 162.642 25.7727 161.312 25.7727C159.983 25.7727 158.896 24.6682 158.896 23.3182V16.5682C158.896 11.475 162.944 7.36364 167.958 7.36364C169.831 7.36364 171.644 7.91592 173.154 9.02046C174.242 9.81819 174.544 11.3523 173.758 12.4568ZM154.062 9.81819V23.3182C154.062 24.6682 152.975 25.7727 151.646 25.7727C150.74 25.7727 149.954 25.2818 149.531 24.5455C148.202 25.3432 146.631 25.7727 145 25.7727C143.809 25.7744 142.63 25.5374 141.53 25.0754C140.43 24.6134 139.43 23.9354 138.588 23.0804C137.746 22.2253 137.079 21.21 136.624 20.0925C136.169 18.9751 135.936 17.7774 135.938 16.5682C135.938 11.475 139.985 7.36364 145 7.36364C146.631 7.36364 148.202 7.85455 149.531 8.59092C149.954 7.85455 150.74 7.36364 151.646 7.36364C152.975 7.36364 154.062 8.46819 154.062 9.81819ZM149.229 16.5682C149.229 14.175 147.356 12.2727 145 12.2727C142.644 12.2727 140.771 14.175 140.771 16.5682C140.771 18.9614 142.644 20.8636 145 20.8636C147.356 20.8636 149.229 18.9614 149.229 16.5682ZM195.146 2.45455V23.3182C195.146 24.6682 194.058 25.7727 192.729 25.7727C191.823 25.7727 191.038 25.2818 190.615 24.5455C189.285 25.3432 187.715 25.7727 186.083 25.7727C184.893 25.7744 183.714 25.5374 182.613 25.0754C181.513 24.6134 180.513 23.9354 179.672 23.0804C178.83 22.2253 178.162 21.21 177.707 20.0925C177.253 18.9751 177.019 17.7774 177.021 16.5682C177.021 11.475 181.069 7.36364 186.083 7.36364C187.594 7.36364 189.044 7.73183 190.312 8.40683V2.45455C190.312 1.10455 191.4 8.20445e-06 192.729 8.20445e-06C194.058 8.20445e-06 195.146 1.10455 195.146 2.45455ZM190.312 16.5682C190.312 14.175 188.44 12.2727 186.083 12.2727C183.727 12.2727 181.854 14.175 181.854 16.5682C181.854 18.9614 183.727 20.8636 186.083 20.8636C188.44 20.8636 190.312 18.9614 190.312 16.5682ZM202.396 7.36364C201.067 7.36364 199.979 8.46819 199.979 9.81819V23.3182C199.979 24.6682 201.067 25.7727 202.396 25.7727C203.725 25.7727 204.812 24.6682 204.812 23.3182V9.81819C204.812 8.46819 203.725 7.36364 202.396 7.36364ZM203.725 0.429554C203.604 0.36819 203.423 0.245463 203.302 0.184099C203.181 0.122735 203 0.0613718 202.819 0.0613718C202.517 8.20665e-06 202.154 8.20665e-06 201.852 0.0613718C201.671 0.122735 201.55 0.122735 201.369 0.184099C201.248 0.245463 201.067 0.306826 200.946 0.429554C200.825 0.490917 200.704 0.613645 200.583 0.736372C200.221 1.16592 199.979 1.77955 199.979 2.45455C199.979 2.63864 199.979 2.76137 200.04 2.94546C200.04 3.12955 200.1 3.25228 200.16 3.43637C200.221 3.5591 200.281 3.74319 200.402 3.86592C200.463 3.98864 200.583 4.11137 200.704 4.2341C200.825 4.35683 200.946 4.47955 201.067 4.54092C201.188 4.60228 201.308 4.72501 201.49 4.78637C201.671 4.84774 201.792 4.9091 201.973 4.9091C202.154 4.9091 202.275 4.97046 202.456 4.97046C202.638 4.97046 202.758 4.97046 202.94 4.9091C203.121 4.84774 203.242 4.84774 203.423 4.78637C203.544 4.72501 203.725 4.66364 203.846 4.54092C203.967 4.47955 204.088 4.35683 204.208 4.2341C204.571 3.74319 204.812 3.06819 204.812 2.45455C204.812 1.77955 204.571 1.16592 204.087 0.736372C203.967 0.613645 203.846 0.490917 203.725 0.429554ZM257.979 8.20445e-06C256.65 8.20445e-06 255.563 1.10455 255.563 2.45455V23.3182C255.563 24.6682 256.65 25.7727 257.979 25.7727C259.308 25.7727 260.396 24.6682 260.396 23.3182V2.45455C260.396 1.10455 259.308 8.20445e-06 257.979 8.20445e-06ZM218.708 7.36364C217.518 7.36203 216.339 7.59901 215.238 8.06101C214.138 8.52301 213.138 9.20095 212.297 10.056C211.455 10.911 210.787 11.9264 210.332 13.0439C209.878 14.1613 209.644 15.359 209.646 16.5682V23.3182C209.646 24.6682 210.733 25.7727 212.062 25.7727C213.392 25.7727 214.479 24.6682 214.479 23.3182V16.5682C214.479 14.175 216.352 12.2727 218.708 12.2727C221.065 12.2727 222.938 14.175 222.938 16.5682V23.3182C222.938 24.6682 224.025 25.7727 225.354 25.7727C226.683 25.7727 227.771 24.6682 227.771 23.3182V16.5682C227.771 11.475 223.723 7.36364 218.708 7.36364ZM250.729 9.81819V23.3182C250.729 24.6682 249.642 25.7727 248.313 25.7727C247.406 25.7727 246.621 25.2818 246.198 24.5455C244.869 25.3432 243.298 25.7727 241.667 25.7727C240.476 25.7744 239.297 25.5374 238.197 25.0754C237.096 24.6134 236.097 23.9354 235.255 23.0804C234.413 22.2253 233.746 21.21 233.291 20.0925C232.836 18.9751 232.603 17.7774 232.604 16.5682C232.604 11.475 236.652 7.36364 241.667 7.36364C243.298 7.36364 244.869 7.85455 246.198 8.59092C246.621 7.85455 247.406 7.36364 248.313 7.36364C249.642 7.36364 250.729 8.46819 250.729 9.81819ZM245.896 16.5682C245.896 14.175 244.023 12.2727 241.667 12.2727C239.31 12.2727 237.438 14.175 237.438 16.5682C237.438 18.9614 239.31 20.8636 241.667 20.8636C244.023 20.8636 245.896 18.9614 245.896 16.5682ZM92.4375 7.36364C91.1083 7.36364 90.0208 8.46819 90.0208 9.81819V23.3182C90.0208 24.6682 91.1083 25.7727 92.4375 25.7727C93.7667 25.7727 94.8542 24.6682 94.8542 23.3182V9.81819C94.8542 8.46819 93.7667 7.36364 92.4375 7.36364ZM94.6729 1.5341C94.6125 1.41137 94.5521 1.22728 94.4313 1.10455C94.3708 0.981826 94.25 0.859099 94.1292 0.736372C94.0083 0.613645 93.8875 0.490917 93.7667 0.429554C93.6458 0.36819 93.525 0.245463 93.3438 0.184099C93.2229 0.122735 93.0417 0.0613718 92.8604 0.0613718C92.075 -0.122719 91.2292 0.184099 90.6854 0.736372C90.5646 0.859099 90.4438 0.981826 90.3833 1.10455C90.3229 1.22728 90.2021 1.41137 90.1417 1.5341C90.0813 1.65683 90.0208 1.84092 90.0208 2.02501C90.0208 2.2091 89.9604 2.33183 89.9604 2.51592C89.9604 2.70001 89.9604 2.82274 90.0208 3.00683C90.0813 3.19092 90.0813 3.31364 90.1417 3.49774C90.2021 3.62046 90.2625 3.80455 90.3833 3.92728C90.4438 4.05001 90.5646 4.17274 90.6854 4.29546C91.1688 4.72501 91.7729 5.03183 92.3771 5.03183C92.5583 5.03183 92.6792 5.03183 92.8604 4.97046C93.0417 4.9091 93.1625 4.9091 93.3438 4.84774C93.4646 4.78637 93.6458 4.72501 93.7667 4.60228C93.8875 4.54092 94.0083 4.41819 94.1292 4.29546C94.25 4.17274 94.3708 4.05001 94.4313 3.92728C94.4917 3.80455 94.6125 3.68183 94.6729 3.49774C94.7333 3.37501 94.7937 3.19092 94.7937 3.00683C94.7937 2.82274 94.8542 2.70001 94.8542 2.51592C94.8542 2.33183 94.8542 2.2091 94.7937 2.02501C94.7937 1.84092 94.7333 1.65683 94.6729 1.5341ZM82.7708 4.9091C84.1 4.9091 85.1875 3.80455 85.1875 2.45455C85.1875 1.10455 84.1 8.20445e-06 82.7708 8.20445e-06C81.5803 -0.00160731 80.4011 0.235373 79.3009 0.697372C78.2007 1.15937 77.201 1.83731 76.3591 2.69235C75.5173 3.5474 74.8498 4.56274 74.3949 5.68022C73.9401 6.79769 73.7067 7.99534 73.7083 9.20455V23.3182C73.7083 24.6682 74.7958 25.7727 76.125 25.7727C77.4542 25.7727 78.5417 24.6682 78.5417 23.3182V17.1818H82.7708C84.1 17.1818 85.1875 16.0773 85.1875 14.7273C85.1875 13.3773 84.1 12.2727 82.7708 12.2727H78.5417V9.20455C78.5417 6.81137 80.4146 4.9091 82.7708 4.9091ZM66.4583 4.9091C67.7875 4.9091 68.875 3.80455 68.875 2.45455C68.875 1.10455 67.7875 8.20445e-06 66.4583 8.20445e-06C65.2678 -0.00160731 64.0886 0.235373 62.9884 0.697372C61.8882 1.15937 60.8885 1.83731 60.0466 2.69235C59.2048 3.5474 58.5373 4.56274 58.0824 5.68022C57.6276 6.79769 57.3942 7.99534 57.3958 9.20455V23.3182C57.3958 24.6682 58.4833 25.7727 59.8125 25.7727C61.1417 25.7727 62.2292 24.6682 62.2292 23.3182V17.1818H66.4583C67.7875 17.1818 68.875 16.0773 68.875 14.7273C68.875 13.3773 67.7875 12.2727 66.4583 12.2727H62.2292V9.20455C62.2292 6.81137 64.1021 4.9091 66.4583 4.9091ZM52.5625 9.81819V23.3182C52.5625 24.6682 51.475 25.7727 50.1458 25.7727C49.2396 25.7727 48.4542 25.2818 48.0312 24.5455C46.7021 25.3432 45.1313 25.7727 43.5 25.7727C42.3094 25.7744 41.1303 25.5374 40.0301 25.0754C38.9298 24.6134 37.9301 23.9354 37.0883 23.0804C36.2465 22.2253 35.579 21.21 35.1241 20.0925C34.6692 18.9751 34.4359 17.7774 34.4375 16.5682C34.4375 11.475 38.4854 7.36364 43.5 7.36364C45.1313 7.36364 46.7021 7.85455 48.0312 8.59092C48.4542 7.85455 49.2396 7.36364 50.1458 7.36364C51.475 7.36364 52.5625 8.46819 52.5625 9.81819ZM47.7292 16.5682C47.7292 14.175 45.8563 12.2727 43.5 12.2727C41.1438 12.2727 39.2708 14.175 39.2708 16.5682C39.2708 18.9614 41.1438 20.8636 43.5 20.8636C45.8563 20.8636 47.7292 18.9614 47.7292 16.5682ZM30.5708 9.02046C29.0604 7.91592 27.2479 7.36364 25.375 7.36364C24.1845 7.36203 23.0053 7.59901 21.9051 8.06101C20.8048 8.52301 19.8051 9.20095 18.9633 10.056C18.1215 10.911 17.454 11.9264 16.9991 13.0439C16.5442 14.1613 16.3109 15.359 16.3125 16.5682V23.3182C16.3125 24.6682 17.4 25.7727 18.7292 25.7727C20.0583 25.7727 21.1458 24.6682 21.1458 23.3182V16.5682C21.1458 14.175 23.0188 12.2727 25.375 12.2727C26.2812 12.2727 27.0667 12.5182 27.7917 13.0705C28.8792 13.8682 30.3896 13.5614 31.175 12.4568C31.9604 11.3523 31.6583 9.81819 30.5708 9.02046ZM9.0625 12.2727C10.3917 12.2727 11.4792 11.1682 11.4792 9.81819C11.4792 8.46819 10.3917 7.36364 9.0625 7.36364H4.83333V2.45455C4.83333 1.10455 3.74583 8.20445e-06 2.41667 8.20445e-06C1.0875 8.20445e-06 0 1.10455 0 2.45455V16.5682C0 21.6614 4.04792 25.7727 9.0625 25.7727C10.3917 25.7727 11.4792 24.6682 11.4792 23.3182C11.4792 21.9682 10.3917 20.8636 9.0625 20.8636C6.70625 20.8636 4.83333 18.9614 4.83333 16.5682V12.2727H9.0625Z" fill="#D9D9D9"/>
</svg>
