<svg width="177" height="41" viewBox="0 0 177 41" fill="none"
    xmlns="http://www.w3.org/2000/svg">
    <path d="M21.8634 40.1408L10.5371 24.9397V40.1408H2.33301V5.7168H10.5371V20.8228L21.7704 5.7168H31.4155L18.3617 22.5883L31.8958 40.1408H21.8634Z" fill="#D9D9D9"/>
    <path d="M56.7566 28.4708H38.179C38.303 30.173 38.8453 31.4714 39.7826 32.366C40.7278 33.2686 41.8821 33.7119 43.2611 33.7119C45.3063 33.7119 46.7318 32.8252 47.5297 31.0597H56.2606C55.8115 32.8569 55.0055 34.4799 53.836 35.9129C52.6662 37.3538 51.2018 38.4781 49.4434 39.2936C47.6846 40.109 45.7169 40.5207 43.54 40.5207C40.9137 40.5207 38.5819 39.9507 36.5289 38.8027C34.4837 37.6626 32.88 36.0238 31.7334 33.902C30.5791 31.7801 30.0059 29.2941 30.0059 26.444C30.0059 23.6017 30.5714 21.1157 31.7102 18.9939C32.8413 16.8721 34.4372 15.2332 36.4824 14.0852C38.5276 12.9451 40.8828 12.3672 43.54 12.3672C46.1275 12.3672 48.4363 12.9214 50.4505 14.0377C52.4647 15.1461 54.0371 16.7375 55.176 18.7959C56.3148 20.8544 56.8806 23.2613 56.8806 26.0085C56.8961 26.8002 56.8496 27.6236 56.7566 28.4708ZM48.4983 23.8155C48.4983 22.3745 48.0177 21.2345 47.0571 20.3794C46.0965 19.5323 44.8957 19.1047 43.4548 19.1047C42.0835 19.1047 40.9215 19.5164 39.9763 20.3319C39.0312 21.1473 38.4502 22.3112 38.2255 23.8155H48.4983Z" fill="#D9D9D9"/>
    <path d="M68.9814 12.7773V40.1392H60.7773V12.7773H68.9814Z" fill="#D9D9D9"/>
    <path d="M105.361 12.3828C103.153 12.3828 101.155 12.9529 99.3653 14.1009C97.5759 15.2488 96.158 16.8798 95.1199 19.0095C94.0818 21.1313 93.5625 23.6015 93.5625 26.4121C93.5625 29.2227 94.0818 31.7008 95.1199 33.8384C96.158 35.976 97.5759 37.6308 99.3653 38.7945C101.155 39.9584 103.138 40.5363 105.315 40.5363C107.205 40.5363 108.856 40.1405 110.281 39.3567C111.706 38.5729 112.814 37.5436 113.612 36.269V40.1405H121.816V12.7786H113.612V16.6502C112.845 15.3755 111.745 14.3462 110.327 13.5624C108.902 12.7786 107.252 12.3828 105.361 12.3828ZM112.876 26.4596C112.876 28.5497 112.31 30.2044 111.172 31.4158C110.041 32.6271 108.654 33.2288 107.02 33.2288C105.385 33.2288 104.006 32.6192 102.867 31.392C101.728 30.1648 101.163 28.5101 101.163 26.4121C101.163 24.3219 101.728 22.6752 102.867 21.4796C103.998 20.2842 105.385 19.6904 107.02 19.6904C108.646 19.6904 110.033 20.2921 111.172 21.5034C112.31 22.7147 112.876 24.3694 112.876 26.4596Z" fill="#D9D9D9"/>
    <path d="M90.9525 35.9512C90.503 35.0249 90.1314 34.0432 89.8291 33.0298H87.6987C86.8001 33.0298 86.165 32.8556 85.7775 32.4914C85.3899 32.1351 85.2039 31.5413 85.2039 30.7259V19.7448H89.8446H90.5417H90.5805V19.6181V17.7258V12.7855H85.2039V6.11133H76.9999V12.7855H73.7383V19.7448H76.9999V30.6309C76.9999 33.9957 77.8292 36.4263 79.4946 37.9147C81.16 39.4031 83.4765 40.1473 86.4513 40.1473H93.7568C92.6644 38.9281 91.7271 37.5347 90.9525 35.9512Z" fill="#D9D9D9"/>
    <path d="M68.2995 1.34592C67.3621 0.45128 66.2233 0 64.8829 0C63.5348 0 62.3959 0.443363 61.4586 1.33009C60.5212 2.21681 60.0566 3.43606 60.0566 4.99576C60.0566 6.54751 60.5212 7.78259 61.4586 8.69307C62.3959 9.60355 63.5348 10.0628 64.8751 10.0628C66.2155 10.0628 67.3621 9.61147 68.2917 8.71683C69.2291 7.82219 69.6936 6.59504 69.6936 5.03536C69.7014 3.47565 69.2368 2.24848 68.2995 1.34592Z" fill="#D9D9D9"/>
    <path d="M167.694 14.1008C165.587 12.9607 163.217 12.3828 160.59 12.3828C157.964 12.3828 155.601 12.9529 153.486 14.1008C151.379 15.2488 149.714 16.8877 148.497 19.0332C147.281 21.1709 146.677 23.649 146.677 26.4596C146.677 29.3018 147.273 31.7878 148.474 33.9175C149.675 36.0394 151.317 37.6782 153.416 38.8183C155.508 39.9663 157.871 40.5363 160.497 40.5363C163.116 40.5363 165.494 39.9663 167.624 38.8183C169.747 37.6782 171.429 36.0315 172.66 33.8938C173.892 31.7561 174.504 29.2781 174.504 26.4596C174.504 23.649 173.9 21.1709 172.684 19.0332C171.467 16.8877 169.809 15.2488 167.694 14.1008ZM164.502 31.5108C163.403 32.6825 162.062 33.2763 160.497 33.2763C158.933 33.2763 157.623 32.6904 156.585 31.5108C155.547 30.3311 155.028 28.6526 155.028 26.4596C155.028 24.2348 155.555 22.5406 156.608 21.3846C157.662 20.2208 158.995 19.6428 160.59 19.6428C162.155 19.6428 163.48 20.2287 164.549 21.4084C165.618 22.588 166.153 24.2665 166.153 26.4596C166.16 28.6526 165.61 30.339 164.502 31.5108Z" fill="#D9D9D9"/>
    <path d="M147.149 13.0801C146.336 12.6842 145.367 12.4863 144.081 12.4863C142.842 12.4863 140.719 12.9218 139.278 13.7848C137.837 14.6556 136.636 15.8353 135.676 17.3396V12.7793H127.472V40.1411H135.676V27.4419C135.676 25.1855 136.187 23.61 137.21 22.7074C138.233 21.8128 139.766 21.3615 141.819 21.3615H142.625C143.036 19.6831 143.656 18.1075 144.484 16.6508C145.236 15.3207 146.127 14.1331 147.149 13.0801Z" fill="#D9D9D9"/>
</svg>
