<svg width="211" height="39" viewBox="0 0 211 39" fill="none"
    xmlns="http://www.w3.org/2000/svg">
    <g clip-path="url(#clip0_1513_122)">
        <path d="M205.247 3.16993e-06C203.723 -0.00161398 202.261 0.615574 201.183 1.71583C200.104 2.81608 199.497 4.3093 199.495 5.86707C199.497 7.42484 200.104 8.91805 201.183 10.0183C202.261 11.1186 203.723 11.7357 205.247 11.7341C206.771 11.7354 208.233 11.1182 209.311 10.018C210.39 8.91787 210.997 7.42485 211 5.86707C210.997 4.30928 210.39 2.81626 209.311 1.71611C208.233 0.615962 206.771 -0.0012912 205.247 3.16993e-06ZM205.247 11.0967C203.89 11.0958 202.588 10.545 201.627 9.5651C200.666 8.58517 200.124 7.25589 200.12 5.86828C200.12 2.97375 202.436 0.63741 205.247 0.63741C206.605 0.638369 207.906 1.18923 208.868 2.16939C209.829 3.14955 210.371 4.47914 210.375 5.86707C210.371 7.25499 209.829 8.58458 208.868 9.56474C207.906 10.5449 206.605 11.0958 205.247 11.0967Z" fill="#D9D9D9"/>
        <path d="M208.007 6.15862C208.267 5.78691 208.396 5.30916 208.396 4.80459C208.396 4.30003 208.267 3.84787 208.033 3.47616C207.783 3.09155 207.43 2.78796 207.017 2.60109C206.575 2.38781 206.054 2.30859 205.456 2.30859H202.618V9.34444H203.894V7.29937H205.715L207.121 9.37125H208.501L206.914 7.0605C207.382 6.82163 207.746 6.53034 208.007 6.15862ZM205.377 6.18422H203.868V3.37013H205.377C205.924 3.37013 206.366 3.50419 206.652 3.74184C206.939 3.98072 207.095 4.32684 207.095 4.77778C207.095 5.22872 206.939 5.57362 206.652 5.81372C206.366 6.07819 205.95 6.18422 205.377 6.18422ZM50.9929 29.8402H45.9944C46.0469 29.4684 46.0731 29.0699 46.0731 28.6714V16.7252H38.7584V28.6714C38.7584 30.0522 37.6653 31.1942 36.286 31.1942C35.632 31.191 35.0055 30.9244 34.5425 30.4521C34.0795 29.9799 33.8172 29.34 33.8125 28.6714V5.83931H26.4978V28.6714C26.4978 34.1679 30.8966 38.6529 36.2848 38.6529C37.8567 38.6555 39.4061 38.2708 40.8018 37.5315C42.1974 36.7922 43.3984 35.7199 44.3028 34.4056V37.3001H58.3337V5.83931H51.0191V29.8402H50.9929ZM186.714 24.1327C191.66 24.1327 195.669 20.017 195.669 14.9994C195.669 9.95503 191.633 5.86613 186.714 5.86613H172.398V37.3001H179.711V30.1582L193.039 38.0972L196.658 30.7688L185.126 24.1327H186.714ZM179.711 13.3273H186.714C187.625 13.3273 188.354 14.0708 188.354 14.9994C188.354 15.9281 187.625 16.6716 186.714 16.6716H179.711V13.3273ZM154.046 27.1589C156.545 27.1589 167.061 27.1321 167.166 27.1321L169.352 20.3887L161.074 13.3005H168.519V5.83931H149.985L147.799 12.5839L156.102 19.6721H154.072C149.204 19.6721 145.378 23.176 145.378 27.6367C145.378 32.9723 149.62 37.3001 154.853 37.3001H169.143V29.8402H154.853C153.682 29.8402 152.719 28.8578 152.719 27.6622C152.796 27.5038 153.291 27.1589 154.046 27.1589ZM112.581 29.8657C112.581 30.7957 111.851 31.5391 110.941 31.5391C110.029 31.5391 109.3 30.7957 109.3 29.8657V5.84053H91.3916V37.6999H98.7063V13.3005H101.986V29.867C101.986 34.9126 106.021 39.0003 110.941 39.0003C115.885 39.0003 119.894 34.8858 119.894 29.867V5.84053H112.58V29.8682L112.581 29.8657ZM17.9863 17.5734C16.9968 16.6984 14.9941 15.0518 12.8329 13.3005H22.2814V5.83931H2.23875L0 12.5302C0.103712 12.6095 10.6203 20.9725 13.2227 23.2553C15.8262 25.5392 16.0348 26.5215 16.0348 27.6367C16.0348 28.831 15.0716 29.8133 13.901 29.8133H0.703333V37.2733H13.8998C19.1331 37.2733 23.3745 32.9467 23.3745 27.6086C23.3745 25.5124 22.881 23.6806 21.8915 21.9548C21.0058 20.5472 19.809 19.1663 17.9863 17.5734Z" fill="#D9D9D9"/>
        <path d="M138.558 27.6896C137.823 26.9412 137.24 26.0517 136.843 25.0722C136.445 24.0927 136.241 23.0426 136.242 21.9822C136.242 19.8311 137.075 17.7872 138.584 16.248L148.294 5.83984H137.986L133.378 10.9903C132.658 11.7272 132.012 12.537 131.452 13.4071V5.83984H124.137V37.698H131.452V30.5561C132.012 31.4262 132.658 32.236 133.378 32.9729L137.986 37.726H148.294L138.558 27.6896ZM63.4884 29.3629L62.3678 32.9729L61.041 37.2994H68.6942L69.3451 35.124L70.412 31.5396C71.0105 29.5214 72.8844 28.1149 74.967 28.1149C76.2286 28.114 77.439 28.6251 78.3322 29.536C79.2254 30.4469 79.7284 31.6831 79.7306 32.9729V37.3263H87.0453V5.89469L70.7768 5.84106L63.4884 29.3629ZM79.7032 13.3534V21.6373C78.1984 20.975 76.5779 20.6317 74.9396 20.6282C74.4962 20.6282 74.0532 20.6546 73.6128 20.7074L75.8253 13.3266L79.7032 13.3534Z" fill="#D9D9D9"/>
    </g>
    <defs>
        <clipPath id="clip0_1513_122">
            <rect width="211" height="39" fill="#D9D9D9"/>
        </clipPath>
    </defs>
</svg>
